<?xml version="1.0" encoding="UTF-8"?>
<svg width="20px" height="20px" viewBox="0 0 20 20" version="1.1" xmlns="http://www.w3.org/2000/svg" xmlns:xlink="http://www.w3.org/1999/xlink">
    <!-- Generator: Sketch 52.6 (67491) - http://www.bohemiancoding.com/sketch -->
    <title>instagram_icon</title>
    <desc>Created with Sketch.</desc>
    <g id="Page-1" stroke="none" stroke-width="1" fill="none" fill-rule="evenodd">
        <g id="Desktop-HD" transform="translate(-75.000000, -380.000000)" fill="#9013FE">
            <g id="Group" transform="translate(75.000000, 340.000000)">
                <path d="M4.6875,40 L15.3125,40 C17.9013348,40 20,42.0986652 20,44.6875 L20,55.3125 C20,57.9013348 17.9013348,60 15.3125,60 L4.6875,60 C2.09866524,60 0,57.9013348 0,55.3125 L0,44.6875 C0,42.0986652 2.09866524,40 4.6875,40 Z M7.03125,43.515625 C5.08962393,43.515625 3.515625,45.0896239 3.515625,47.03125 L3.515625,52.96875 C3.515625,54.9103761 5.08962393,56.484375 7.03125,56.484375 L12.96875,56.484375 C14.9103761,56.484375 16.484375,54.9103761 16.484375,52.96875 L16.484375,47.03125 C16.484375,45.0896239 14.9103761,43.515625 12.96875,43.515625 L7.03125,43.515625 Z M7.03125,44.6875 L12.96875,44.6875 C14.2631674,44.6875 15.3125,45.7368326 15.3125,47.03125 L15.3125,52.96875 C15.3125,54.2631674 14.2631674,55.3125 12.96875,55.3125 L7.03125,55.3125 C5.73683262,55.3125 4.6875,54.2631674 4.6875,52.96875 L4.6875,47.03125 C4.6875,45.7368326 5.73683262,44.6875 7.03125,44.6875 Z M10,53.359375 C11.8553316,53.359375 13.359375,51.8553316 13.359375,50 C13.359375,48.1446684 11.8553316,46.640625 10,46.640625 C8.14466842,46.640625 6.640625,48.1446684 6.640625,50 C6.640625,51.8553316 8.14466842,53.359375 10,53.359375 Z M10,52.1875 C8.79187711,52.1875 7.8125,51.2081229 7.8125,50 C7.8125,48.7918771 8.79187711,47.8125 10,47.8125 C11.2081229,47.8125 12.1875,48.7918771 12.1875,50 C12.1875,51.2081229 11.2081229,52.1875 10,52.1875 Z M13.4765625,47.1875 C13.8433141,47.1875 14.140625,46.8901891 14.140625,46.5234375 C14.140625,46.1566859 13.8433141,45.859375 13.4765625,45.859375 C13.1098109,45.859375 12.8125,46.1566859 12.8125,46.5234375 C12.8125,46.8901891 13.1098109,47.1875 13.4765625,47.1875 Z" id="instagram_icon"></path>
            </g>
        </g>
    </g>
</svg>