<?xml version="1.0" encoding="UTF-8"?>
<svg width="222px" height="24px" viewBox="0 0 222 24" version="1.1" xmlns="http://www.w3.org/2000/svg" xmlns:xlink="http://www.w3.org/1999/xlink">
    <!-- Generator: Sketch 52.6 (67491) - http://www.bohemiancoding.com/sketch -->
    <title>Logo Name</title>
    <desc>Created with Sketch.</desc>
    <g id="Page-1" stroke="none" stroke-width="1" fill="none" fill-rule="evenodd">
        <g id="Desktop-HD" transform="translate(-27.000000, -569.000000)" fill="#9013FE">
            <path d="M42.3488303,588.087137 L42.3488303,592.53527 L27,592.53527 L27,569.53112 L32.1715281,569.53112 L32.1715281,588.087137 L42.3488303,588.087137 Z M52.5206073,581.016598 C52.5206073,582.145234 52.6587343,583.163204 52.9349925,584.070539 C53.2112508,584.977875 53.6090566,585.75795 54.1284221,586.410788 C54.6477876,587.063627 55.283172,587.56708 56.0345943,587.921162 C56.7860167,588.275244 57.6479294,588.452282 58.6203584,588.452282 C59.5706867,588.452282 60.4270743,588.275244 61.189547,587.921162 C61.9520197,587.56708 62.5929292,587.063627 63.1122947,586.410788 C63.6316601,585.75795 64.029466,584.977875 64.3057242,584.070539 C64.5819825,583.163204 64.7201095,582.145234 64.7201095,581.016598 C64.7201095,579.887961 64.5819825,578.864458 64.3057242,577.946058 C64.029466,577.027658 63.6316601,576.24205 63.1122947,575.589212 C62.5929292,574.936373 61.9520197,574.43292 61.189547,574.078838 C60.4270743,573.724756 59.5706867,573.547718 58.6203584,573.547718 C57.6479294,573.547718 56.7860167,573.730289 56.0345943,574.095436 C55.283172,574.460583 54.6477876,574.969568 54.1284221,575.622407 C53.6090566,576.275245 53.2112508,577.060853 52.9349925,577.979253 C52.6587343,578.897653 52.5206073,579.910091 52.5206073,581.016598 Z M70.0573917,581.016598 C70.0573917,582.986179 69.7645624,584.717835 69.178895,586.211618 C68.5932275,587.705402 67.7920907,588.955735 66.7754604,589.962656 C65.7588301,590.969576 64.5488373,591.727522 63.1454455,592.236515 C61.7420537,592.745507 60.2337064,593 58.6203584,593 C57.0512117,593 55.5704898,592.745507 54.1781483,592.236515 C52.7858069,591.727522 51.5702889,590.969576 50.531558,589.962656 C49.4928271,588.955735 48.675115,587.705402 48.0783972,586.211618 C47.4816795,584.717835 47.183325,582.986179 47.183325,581.016598 C47.183325,579.047016 47.4927296,577.31536 48.111548,575.821577 C48.7303665,574.327793 49.5646538,573.071928 50.614435,572.053942 C51.6642163,571.035956 52.8797343,570.272478 54.2610254,569.763485 C55.6423165,569.254493 57.095413,569 58.6203584,569 C60.1895051,569 61.670227,569.254493 63.0625684,569.763485 C64.4549099,570.272478 65.6704278,571.035956 66.7091588,572.053942 C67.7478897,573.071928 68.5656018,574.327793 69.1623195,575.821577 C69.7590373,577.31536 70.0573917,579.047016 70.0573917,581.016598 Z M88.7489298,573.514523 C86.3399581,573.514523 84.5995574,574.183949 83.5276755,575.522822 C82.4557935,576.861694 81.9198606,578.692934 81.9198606,581.016598 C81.9198606,582.145234 82.0524626,583.168737 82.3176705,584.087137 C82.5828784,585.005537 82.9806843,585.796677 83.5111,586.460581 C84.0415158,587.124485 84.7045256,587.639002 85.5001493,588.004149 C86.295773,588.369296 87.2239867,588.551867 88.2848183,588.551867 C88.8594354,588.551867 89.3511677,588.540802 89.7600299,588.518672 C90.168892,588.496542 90.5280223,588.452282 90.8374316,588.385892 L90.8374316,580.385892 L96.0089597,580.385892 L96.0089597,591.771784 C95.3901412,592.015216 94.3956266,592.275241 93.0253858,592.551867 C91.655145,592.828494 89.96447,592.966805 87.9533101,592.966805 C86.2294588,592.966805 84.6658607,592.701247 83.2624689,592.170124 C81.8590771,591.639001 80.6601344,590.864459 79.6656048,589.846473 C78.6710752,588.828487 77.9030888,587.578154 77.3616227,586.095436 C76.8201566,584.612717 76.5494276,582.919788 76.5494276,581.016598 C76.5494276,579.091277 76.847782,577.387283 77.4444998,575.904564 C78.0412175,574.421846 78.8589296,573.16598 79.8976605,572.136929 C80.9363915,571.107879 82.1574345,570.327803 83.5608263,569.79668 C84.9642181,569.265558 86.4615152,569 88.0527626,569 C89.1356948,569 90.1136343,569.071922 90.9866102,569.215768 C91.8595862,569.359613 92.6109973,569.525587 93.2408661,569.713693 C93.8707348,569.901799 94.3900925,570.095435 94.7989547,570.294606 C95.2078169,570.493777 95.5006462,570.648685 95.6774515,570.759336 L94.1856645,574.908714 C93.4784434,574.532502 92.6662564,574.206087 91.7490791,573.929461 C90.8319018,573.652834 89.8318621,573.514523 88.7489298,573.514523 Z M108.33554,581.016598 C108.33554,582.145234 108.473667,583.163204 108.749925,584.070539 C109.026184,584.977875 109.423989,585.75795 109.943355,586.410788 C110.46272,587.063627 111.098105,587.56708 111.849527,587.921162 C112.600949,588.275244 113.462862,588.452282 114.435291,588.452282 C115.385619,588.452282 116.242007,588.275244 117.00448,587.921162 C117.766953,587.56708 118.407862,587.063627 118.927227,586.410788 C119.446593,585.75795 119.844399,584.977875 120.120657,584.070539 C120.396915,583.163204 120.535042,582.145234 120.535042,581.016598 C120.535042,579.887961 120.396915,578.864458 120.120657,577.946058 C119.844399,577.027658 119.446593,576.24205 118.927227,575.589212 C118.407862,574.936373 117.766953,574.43292 117.00448,574.078838 C116.242007,573.724756 115.385619,573.547718 114.435291,573.547718 C113.462862,573.547718 112.600949,573.730289 111.849527,574.095436 C111.098105,574.460583 110.46272,574.969568 109.943355,575.622407 C109.423989,576.275245 109.026184,577.060853 108.749925,577.979253 C108.473667,578.897653 108.33554,579.910091 108.33554,581.016598 Z M125.872325,581.016598 C125.872325,582.986179 125.579495,584.717835 124.993828,586.211618 C124.40816,587.705402 123.607023,588.955735 122.590393,589.962656 C121.573763,590.969576 120.36377,591.727522 118.960378,592.236515 C117.556987,592.745507 116.048639,593 114.435291,593 C112.866144,593 111.385423,592.745507 109.993081,592.236515 C108.60074,591.727522 107.385222,590.969576 106.346491,589.962656 C105.30776,588.955735 104.490048,587.705402 103.89333,586.211618 C103.296612,584.717835 102.998258,582.986179 102.998258,581.016598 C102.998258,579.047016 103.307662,577.31536 103.926481,575.821577 C104.545299,574.327793 105.379587,573.071928 106.429368,572.053942 C107.479149,571.035956 108.694667,570.272478 110.075958,569.763485 C111.457249,569.254493 112.910346,569 114.435291,569 C116.004438,569 117.48516,569.254493 118.877501,569.763485 C120.269843,570.272478 121.485361,571.035956 122.524092,572.053942 C123.562823,573.071928 124.380535,574.327793 124.977252,575.821577 C125.57397,577.31536 125.872325,579.047016 125.872325,581.016598 Z M159.907168,592.53527 C158.426424,589.901785 156.82415,587.301534 155.100299,584.73444 C153.376447,582.167345 151.54212,579.744133 149.597262,577.46473 L149.597262,592.53527 L144.492036,592.53527 L144.492036,569.53112 L148.70219,569.53112 C149.431512,570.261414 150.238174,571.157671 151.1222,572.219917 C152.006226,573.282163 152.906815,574.416315 153.823992,575.622407 C154.741169,576.828498 155.652808,578.078832 156.558935,579.373444 C157.465062,580.668056 158.315924,581.912857 159.111548,583.107884 L159.111548,569.53112 L164.249925,569.53112 L164.249925,592.53527 L159.907168,592.53527 Z M188.112992,592.53527 C187.869884,591.738585 187.599155,590.919783 187.300796,590.078838 C187.002438,589.237893 186.709608,588.396961 186.4223,587.556017 L177.471578,587.556017 C177.184269,588.396961 176.89144,589.237893 176.593081,590.078838 C176.294722,590.919783 176.023993,591.738585 175.780886,592.53527 L170.410453,592.53527 C171.272379,590.056696 172.090091,587.766262 172.863614,585.6639 C173.637137,583.561539 174.394073,581.580922 175.134445,579.721992 C175.874817,577.863061 176.604128,576.09821 177.322399,574.427386 C178.040671,572.756561 178.786557,571.124489 179.56008,569.53112 L184.499552,569.53112 C185.250974,571.124489 185.991335,572.756561 186.720657,574.427386 C187.449979,576.09821 188.184815,577.863061 188.925187,579.721992 C189.665559,581.580922 190.422495,583.561539 191.196018,585.6639 C191.969541,587.766262 192.787253,590.056696 193.649179,592.53527 L188.112992,592.53527 Z M181.913788,574.742739 C181.803285,575.07469 181.637532,575.528351 181.416526,576.103734 C181.195519,576.679118 180.941365,577.343011 180.654057,578.095436 C180.366748,578.84786 180.051819,579.677727 179.709258,580.585062 C179.366698,581.492397 179.018618,582.443978 178.665007,583.439834 L185.195719,583.439834 C184.842109,582.443978 184.499554,581.492397 184.168044,580.585062 C183.836534,579.677727 183.521604,578.84786 183.223245,578.095436 C182.924887,577.343011 182.665208,576.679118 182.444201,576.103734 C182.223195,575.528351 182.046392,575.07469 181.913788,574.742739 Z M205.909457,569.53112 C206.307269,570.261414 206.765851,571.163203 207.285217,572.236515 C207.804582,573.309826 208.34604,574.47164 208.909607,575.721992 C209.473174,576.972344 210.031207,578.250339 210.583723,579.556017 C211.13624,580.861694 211.655597,582.089897 212.141812,583.240664 C212.628026,582.089897 213.147384,580.861694 213.6999,579.556017 C214.252417,578.250339 214.81045,576.972344 215.374017,575.721992 C215.937584,574.47164 216.479042,573.309826 216.998407,572.236515 C217.517773,571.163203 217.976354,570.261414 218.374166,569.53112 L223.081583,569.53112 C223.302589,571.058099 223.507017,572.767625 223.694873,574.659751 C223.882729,576.551877 224.048481,578.521428 224.192135,580.568465 C224.33579,582.615501 224.468392,584.66804 224.589945,586.726141 C224.711499,588.784243 224.816475,590.7206 224.904878,592.53527 L219.865953,592.53527 C219.799651,590.300127 219.71125,587.86585 219.600747,585.232365 C219.490243,582.59888 219.324491,579.943305 219.103484,577.26556 C218.705672,578.195025 218.263666,579.224061 217.777451,580.352697 C217.291237,581.481333 216.810555,582.609953 216.335391,583.738589 C215.860227,584.867226 215.401645,585.946053 214.959632,586.975104 C214.517619,588.004155 214.141913,588.883814 213.832504,589.614108 L210.219064,589.614108 C209.909655,588.883814 209.533949,588.004155 209.091936,586.975104 C208.649923,585.946053 208.191341,584.867226 207.716177,583.738589 C207.241013,582.609953 206.760331,581.481333 206.274116,580.352697 C205.787902,579.224061 205.345895,578.195025 204.948084,577.26556 C204.727077,579.943305 204.561325,582.59888 204.450821,585.232365 C204.340318,587.86585 204.251917,590.300127 204.185615,592.53527 L199.14669,592.53527 C199.235093,590.7206 199.340069,588.784243 199.461623,586.726141 C199.583176,584.66804 199.715778,582.615501 199.859433,580.568465 C200.003087,578.521428 200.168839,576.551877 200.356695,574.659751 C200.54455,572.767625 200.748979,571.058099 200.969985,569.53112 L205.909457,569.53112 Z M232.722947,592.53527 L232.722947,569.53112 L248.237531,569.53112 L248.237531,573.879668 L237.894475,573.879668 L237.894475,578.394191 L247.077252,578.394191 L247.077252,582.643154 L237.894475,582.643154 L237.894475,588.186722 L249,588.186722 L249,592.53527 L232.722947,592.53527 Z" id="Logo-Name"></path>
        </g>
    </g>
</svg>