<?xml version="1.0" encoding="UTF-8"?>
<svg width="20px" height="20px" viewBox="0 0 20 20" version="1.1" xmlns="http://www.w3.org/2000/svg" xmlns:xlink="http://www.w3.org/1999/xlink">
    <!-- Generator: Sketch 52.6 (67491) - http://www.bohemiancoding.com/sketch -->
    <title>twitter_icon</title>
    <desc>Created with Sketch.</desc>
    <g id="Page-1" stroke="none" stroke-width="1" fill="none" fill-rule="evenodd">
        <g id="Desktop-HD" transform="translate(-75.000000, -340.000000)" fill="#9013FE">
            <g id="Group" transform="translate(75.000000, 340.000000)">
                <path d="M10,20 C4.4771525,20 -4.26325641e-14,15.5228475 -4.26325641e-14,10 C-4.26325641e-14,4.4771525 4.4771525,-4.4408921e-14 10,-4.4408921e-14 C15.5228475,-4.4408921e-14 20,4.4771525 20,10 C20,15.5228475 15.5228475,20 10,20 Z M16.1253521,7.18670897 C15.6968163,7.37673357 15.2358373,7.50525865 14.7523976,7.56265821 C15.2459981,7.26692574 15.6247995,6.79899462 15.8035937,6.24050768 C15.3417234,6.5144925 14.8299405,6.71325181 14.2857143,6.82038575 C13.8496916,6.35601982 13.2284573,6.0658134 12.540554,6.0658134 C11.2207209,6.0658134 10.1502727,7.13626154 10.1502727,8.45609469 C10.1502727,8.6434454 10.1714856,8.82580484 10.2124853,9.00085565 C8.22596171,8.9012086 6.46457984,7.94965952 5.28557168,6.50308389 C5.07986024,6.85603765 4.96185247,7.26692574 4.96185247,7.70490927 C4.96185247,8.53399408 5.38414917,9.26592748 6.02517024,9.69446326 C5.63353417,9.68216336 5.26471532,9.57467289 4.94260045,9.3951656 C4.94242219,9.40532639 4.94242219,9.41548718 4.94242219,9.42546971 C4.94242219,10.5836215 5.766694,11.5496096 6.85995936,11.769047 C6.65959571,11.8239509 6.44800171,11.8530072 6.23034689,11.8530072 C6.07597419,11.8530072 5.92641449,11.8382117 5.78059824,11.8104032 C6.0847089,12.7598132 6.96727156,13.4509252 8.01347642,13.4703554 C7.19526543,14.1115548 6.16474741,14.4935648 5.04456487,14.4935648 C4.85204464,14.4935648 4.661307,14.4823345 4.47466933,14.4600521 C5.53192627,15.1385076 6.78865557,15.5340654 8.13843631,15.5340654 C12.535028,15.5340654 14.9393918,11.8918678 14.9393918,8.73293166 C14.9393918,8.6293629 14.9370744,8.52615066 14.9324397,8.42382973 C15.399836,8.08691932 15.8050198,7.6660487 16.1253521,7.18670897 Z" id="twitter_icon"></path>
            </g>
        </g>
    </g>
</svg>