<?xml version="1.0" encoding="UTF-8"?>
<svg width="12px" height="216px" viewBox="0 0 12 216" version="1.1" xmlns="http://www.w3.org/2000/svg" xmlns:xlink="http://www.w3.org/1999/xlink">
    <!-- Generator: Sketch 52.6 (67491) - http://www.bohemiancoding.com/sketch -->
    <title>left-shape</title>
    <desc>Created with Sketch.</desc>
    <g id="Page-1" stroke="none" stroke-width="1" fill="none" fill-rule="evenodd">
        <g id="Bootstrap-4" transform="translate(-126.000000, -173.000000)" fill="#2B2C33">
            <path d="M129.377537,380.842478 C129.886335,380.842478 130.338293,380.945561 130.733424,381.151729 C131.128554,381.357896 131.43437,381.650428 131.65088,382.029331 C131.88904,381.460976 132.240864,381.034716 132.70636,380.750539 C133.171856,380.466362 133.713123,380.324275 134.330176,380.324275 C135.423551,380.324275 136.276046,380.68367 136.887686,381.402472 C137.499326,382.121274 137.805142,383.127024 137.805142,384.419752 L137.805142,388.765973 C137.805142,388.921992 137.723952,389 137.56157,389 L126.43843,389 C126.276048,389 126.194858,388.921992 126.194858,388.765973 L126.194858,384.419752 C126.194858,383.283043 126.470904,382.402663 127.023004,381.778587 C127.575104,381.154511 128.359941,380.842478 129.377537,380.842478 Z M136.051421,384.436468 C136.051421,383.834681 135.918811,383.341557 135.653586,382.957082 C135.388361,382.572606 134.941816,382.380372 134.313938,382.380372 C133.794314,382.380372 133.377539,382.544746 133.063599,382.873501 C132.74966,383.202255 132.592693,383.728811 132.592693,384.453185 L132.592693,386.994052 L136.051421,386.994052 L136.051421,384.436468 Z M129.410014,382.881859 C128.912041,382.881859 128.54398,383.032303 128.305819,383.333197 C128.067658,383.634091 127.948579,384.01856 127.948579,384.486617 L127.948579,386.994052 L130.887686,386.994052 L130.887686,384.486617 C130.887686,384.01856 130.771314,383.634091 130.538566,383.333197 C130.305818,383.032303 129.929637,382.881859 129.410014,382.881859 Z M137.805142,376.883119 C137.805142,377.072571 137.713127,377.139435 137.529093,377.083714 L126.389716,373.071818 C126.25981,373.027241 126.194858,372.938089 126.194858,372.804358 L126.194858,370.898708 C126.194858,370.776121 126.25981,370.686969 126.389716,370.631248 L137.529093,366.619352 C137.713127,366.563631 137.805142,366.630495 137.805142,366.819947 L137.805142,368.458138 C137.805142,368.614157 137.74019,368.708881 137.610284,368.742314 L135.158322,369.561409 L135.158322,374.141657 L137.610284,374.960752 C137.74019,375.016473 137.805142,375.111198 137.805142,375.244928 L137.805142,376.883119 Z M133.388363,373.573305 L133.388363,370.129761 L128.338295,371.8181 L128.338295,371.884965 L133.388363,373.573305 Z M136.814614,354.786647 C137.215158,355.321569 137.512854,355.920561 137.707713,356.583642 C137.902572,357.246723 138,357.929295 138,358.631381 C138,359.255456 137.91881,359.846091 137.756428,360.403301 C137.594045,360.960512 137.342356,361.45085 137.001353,361.87433 C136.66035,362.29781 136.230043,362.632131 135.710419,362.877304 C135.190796,363.122476 134.573752,363.245061 133.859269,363.245061 L130.156969,363.245061 C129.442486,363.245061 128.825442,363.11969 128.305819,362.868946 C127.786195,362.618201 127.355888,362.28388 127.014885,361.865972 C126.673882,361.448064 126.419487,360.963298 126.251691,360.411659 C126.083896,359.860021 126,359.277745 126,358.664813 C126,358.018449 126.094722,357.386024 126.284168,356.767521 C126.473614,356.149017 126.741541,355.589029 127.087957,355.087539 C127.174561,354.964953 127.282814,354.948237 127.41272,355.03739 L128.516915,355.823053 C128.646821,355.901063 128.668471,356.018075 128.581867,356.174094 C128.332881,356.552997 128.14885,356.956969 128.02977,357.386021 C127.91069,357.815073 127.85115,358.241333 127.85115,358.664813 C127.85115,359.47834 128.056832,360.107979 128.4682,360.553747 C128.879569,360.999516 129.447899,361.222397 130.173207,361.222397 L133.810555,361.222397 C134.557514,361.222397 135.133963,360.99673 135.539919,360.545389 C135.945875,360.094049 136.14885,359.461624 136.14885,358.648097 C136.14885,358.168896 136.078485,357.68413 135.937754,357.193784 C135.797022,356.703439 135.585928,356.263249 135.304465,355.873202 C135.207036,355.728327 135.228687,355.616887 135.369418,355.538877 L136.473613,354.753214 C136.614344,354.664061 136.72801,354.675205 136.814614,354.786647 Z M137.805142,350.342517 C137.805142,350.498536 137.723952,350.576544 137.56157,350.576544 L126.43843,350.576544 C126.276048,350.576544 126.194858,350.498536 126.194858,350.342517 L126.194858,348.804623 C126.194858,348.648605 126.276048,348.570596 126.43843,348.570596 L131.147497,348.570596 L126.341001,344.391538 C126.243572,344.29124 126.194858,344.190944 126.194858,344.090646 L126.194858,342.134846 C126.194858,342.023404 126.221921,341.953754 126.276049,341.925894 C126.330176,341.898033 126.400541,341.917535 126.487145,341.9844 L131.374831,346.414202 L137.512855,341.616643 C137.599459,341.549778 137.669824,341.535848 137.723951,341.574853 C137.778079,341.613857 137.805142,341.677936 137.805142,341.767089 L137.805142,343.722889 C137.805142,343.867763 137.756428,343.96806 137.658999,344.023781 L132.803789,347.734785 L133.68065,348.570596 L137.56157,348.570596 C137.723952,348.570596 137.805142,348.648605 137.805142,348.804623 L137.805142,350.342517 Z M136.018945,335.751633 L136.018945,330.385723 C136.018945,330.218559 136.094722,330.134979 136.246279,330.134979 L137.56157,330.134979 C137.723952,330.134979 137.805142,330.218559 137.805142,330.385723 L137.805142,337.54027 C137.805142,337.696289 137.723952,337.774298 137.56157,337.774298 L126.43843,337.774298 C126.276048,337.774298 126.194858,337.696289 126.194858,337.54027 L126.194858,330.61975 C126.194858,330.452587 126.276048,330.369006 126.43843,330.369006 L127.753721,330.369006 C127.905278,330.369006 127.981055,330.452587 127.981055,330.61975 L127.981055,335.751633 L131.017591,335.751633 L131.017591,331.054372 C131.017591,330.887209 131.098781,330.803628 131.261164,330.803628 L132.560217,330.803628 C132.722599,330.803628 132.803789,330.887209 132.803789,331.054372 L132.803789,335.751633 L136.018945,335.751633 Z M137.805142,325.356525 C137.805142,325.512543 137.723952,325.590552 137.56157,325.590552 L126.43843,325.590552 C126.276048,325.590552 126.194858,325.512543 126.194858,325.356525 L126.194858,323.668185 C126.194858,323.545599 126.248985,323.445302 126.35724,323.367293 L131.878214,320.107627 C132.365361,319.817878 132.866033,319.525347 133.380244,319.230025 C133.894455,318.934704 134.373475,318.670032 134.817321,318.436004 L134.801083,318.385855 C134.108251,318.441576 133.372128,318.480581 132.592693,318.502869 C131.813257,318.525157 131.082547,318.536301 130.400541,318.536301 L126.43843,318.536301 C126.276048,318.536301 126.194858,318.452721 126.194858,318.285558 L126.194858,316.781097 C126.194858,316.613934 126.276048,316.530353 126.43843,316.530353 L137.56157,316.530353 C137.723952,316.530353 137.805142,316.613934 137.805142,316.781097 L137.805142,318.469436 C137.805142,318.592023 137.751015,318.686747 137.64276,318.753612 L132.560217,321.912981 C132.073069,322.225018 131.539922,322.542624 130.960758,322.865806 C130.381594,323.188988 129.848446,323.467589 129.361299,323.701617 L129.377537,323.751766 C130.081194,323.707189 130.828142,323.670971 131.618403,323.643111 C132.408664,323.61525 133.1502,323.60132 133.843031,323.60132 L137.56157,323.60132 C137.723952,323.60132 137.805142,323.679328 137.805142,323.835347 L137.805142,325.356525 Z M137.805142,311.166831 C137.805142,311.32285 137.723952,311.400858 137.56157,311.400858 L126.43843,311.400858 C126.276048,311.400858 126.194858,311.32285 126.194858,311.166831 L126.194858,307.021205 C126.194858,306.330264 126.284167,305.706197 126.462788,305.148987 C126.641408,304.591776 126.909335,304.118154 127.266576,303.728107 C127.623818,303.33806 128.070363,303.03717 128.606225,302.82543 C129.142087,302.61369 129.767249,302.507822 130.481732,302.507822 L133.566982,302.507822 C134.27064,302.507822 134.887683,302.61369 135.418133,302.82543 C135.948582,303.03717 136.389714,303.33806 136.741543,303.728107 C137.093371,304.118154 137.358592,304.591776 137.537212,305.148987 C137.715833,305.706197 137.805142,306.330264 137.805142,307.021205 L137.805142,311.166831 Z M135.97023,309.378194 L135.97023,307.021205 C135.97023,306.218822 135.775374,305.614257 135.385656,305.207494 C134.995939,304.80073 134.395133,304.597351 133.583221,304.597351 L130.465494,304.597351 C128.820019,304.597351 127.997294,305.405294 127.997294,307.021205 L127.997294,309.378194 L135.97023,309.378194 Z M136.749662,286.013676 C137.096078,286.381435 137.391068,286.804909 137.634641,287.28411 C137.878215,287.763311 138,288.309369 138,288.9223 C138,289.412646 137.91881,289.872338 137.756428,290.30139 C137.594045,290.730442 137.364007,291.109339 137.066306,291.438094 C136.768605,291.766848 136.411369,292.025947 135.994587,292.215398 C135.577806,292.40485 135.115023,292.499574 134.606225,292.499574 C134.205681,292.499574 133.845739,292.438282 133.526387,292.315696 C133.207035,292.193109 132.914751,292.031521 132.649526,291.830925 C132.384302,291.630329 132.146144,291.39909 131.935047,291.137201 C131.72395,290.875312 131.526388,290.599497 131.342355,290.309748 C130.995939,290.588353 130.600814,290.84188 130.156969,291.070336 C129.713124,291.298793 129.242222,291.413019 128.744249,291.413019 C128.354531,291.413019 127.991883,291.332225 127.656292,291.170634 C127.320702,291.009043 127.031124,290.791734 126.787551,290.518701 C126.543977,290.245668 126.351827,289.919704 126.211096,289.540801 C126.070365,289.161898 126,288.75514 126,288.320516 C126,287.885892 126.070365,287.490278 126.211096,287.133664 C126.351827,286.777049 126.543977,286.467802 126.787551,286.205913 C127.031124,285.944024 127.326115,285.743431 127.67253,285.604128 C128.018946,285.464826 128.39242,285.395175 128.792963,285.395175 C129.171856,285.395175 129.510147,285.459254 129.807848,285.587412 C130.10555,285.71557 130.376183,285.885517 130.619756,286.097257 C130.86333,286.308997 131.085249,286.55138 131.285521,286.824413 C131.485793,287.097446 131.67253,287.384406 131.845737,287.685299 C132.192153,287.417838 132.530445,287.147595 132.860622,286.874562 C133.1908,286.601529 133.529092,286.325714 133.875507,286.047108 C133.626521,285.891089 133.39107,285.751789 133.169147,285.629203 C132.947225,285.506616 132.760488,285.40632 132.608931,285.32831 C132.4682,285.261445 132.430311,285.161149 132.495264,285.027418 L132.998647,283.873998 C133.052774,283.740268 133.161028,283.695691 133.32341,283.740268 C133.659,283.873999 134.005411,284.041159 134.362652,284.241755 C134.719894,284.442351 135.055479,284.642944 135.369418,284.84354 L137.512855,283.121768 C137.599459,283.066047 137.669824,283.054902 137.723951,283.088335 C137.778079,283.121768 137.805142,283.188632 137.805142,283.28893 L137.805142,285.010702 C137.805142,285.155577 137.761841,285.255873 137.675237,285.311594 L136.749662,286.013676 Z M134.589986,290.644072 C135.087959,290.644072 135.496615,290.465768 135.815968,290.109153 C136.13532,289.752538 136.294993,289.312349 136.294993,288.788571 C136.294993,288.431956 136.211097,288.117137 136.043302,287.844103 C135.875507,287.57107 135.656294,287.323115 135.385656,287.100231 L132.722598,289.206476 C132.971584,289.618812 133.242218,289.961492 133.534506,290.234525 C133.826794,290.507558 134.178618,290.644072 134.589986,290.644072 Z M128.776725,289.624382 C129.058188,289.624382 129.342353,289.540802 129.629229,289.373639 C129.916104,289.206476 130.200269,289.011455 130.481732,288.788571 C130.232746,288.331658 129.97835,287.949974 129.718539,287.643509 C129.458727,287.337043 129.144792,287.183812 128.776725,287.183812 C128.441135,287.183812 128.15697,287.281323 127.924222,287.476346 C127.691474,287.67137 127.575101,287.963901 127.575101,288.353949 C127.575101,288.732852 127.691474,289.039313 127.924222,289.273341 C128.15697,289.50737 128.441135,289.624382 128.776725,289.624382 Z M127.769959,265.490918 C127.921516,265.490918 127.997294,265.574498 127.997294,265.741661 L127.997294,271.07414 L131.374831,271.07414 L131.374831,266.443743 C131.374831,266.287724 131.456021,266.209716 131.618403,266.209716 L132.917456,266.209716 C133.079838,266.209716 133.161028,266.287724 133.161028,266.443743 L133.161028,271.07414 L137.56157,271.07414 C137.723952,271.07414 137.805142,271.152148 137.805142,271.308167 L137.805142,272.84606 C137.805142,273.002079 137.723952,273.080088 137.56157,273.080088 L126.43843,273.080088 C126.276048,273.080088 126.194858,273.002079 126.194858,272.84606 L126.194858,265.741661 C126.194858,265.574498 126.276048,265.490918 126.43843,265.490918 L127.769959,265.490918 Z M137.805142,254.544173 C137.805142,254.666759 137.751015,254.761484 137.64276,254.828349 L133.566982,257.75369 L133.566982,259.241435 L137.56157,259.241435 C137.723952,259.241435 137.805142,259.319443 137.805142,259.475462 L137.805142,261.013355 C137.805142,261.169374 137.723952,261.247383 137.56157,261.247383 L126.43843,261.247383 C126.276048,261.247383 126.194858,261.169374 126.194858,261.013355 L126.194858,257.135189 C126.194858,255.753307 126.519618,254.683479 127.169147,253.925672 C127.818677,253.167866 128.728005,252.788969 129.897158,252.788969 C130.795674,252.788969 131.539916,253.031352 132.129905,253.516125 C132.719895,254.000898 133.128551,254.683471 133.355886,255.563863 L137.512855,252.504793 C137.599459,252.449072 137.669824,252.437928 137.723951,252.47136 C137.778079,252.504793 137.805142,252.566085 137.805142,252.655239 L137.805142,254.544173 Z M127.997294,259.241435 L131.813261,259.241435 L131.813261,257.135189 C131.813261,256.355094 131.659,255.77839 131.350474,255.405059 C131.041947,255.031728 130.562926,254.845065 129.913396,254.845065 C129.253041,254.845065 128.768608,255.031728 128.460081,255.405059 C128.151555,255.77839 127.997294,256.355094 127.997294,257.135189 L127.997294,259.241435 Z M133.485792,239.217775 C134.914757,239.217775 136.024353,239.627319 136.814614,240.446419 C137.604875,241.265518 138,242.421713 138,243.915037 C138,245.408361 137.604875,246.564556 136.814614,247.383655 C136.024353,248.202755 134.914757,248.612298 133.485792,248.612298 L130.49797,248.612298 C129.069005,248.612298 127.962115,248.202755 127.177267,247.383655 C126.392418,246.564556 126,245.408361 126,243.915037 C126,242.421713 126.392418,241.265518 127.177267,240.446419 C127.962115,239.627319 129.069005,239.217775 130.49797,239.217775 L133.485792,239.217775 Z M133.485792,246.556202 C134.362657,246.556202 135.025708,246.333321 135.474966,245.887552 C135.924224,245.441784 136.14885,244.784285 136.14885,243.915037 C136.14885,243.045788 135.924224,242.38829 135.474966,241.942521 C135.025708,241.496753 134.362657,241.273872 133.485792,241.273872 L130.514208,241.273872 C129.637343,241.273872 128.971585,241.496753 128.516915,241.942521 C128.062244,242.38829 127.834912,243.045788 127.834912,243.915037 C127.834912,244.784285 128.062244,245.441784 128.516915,245.887552 C128.971585,246.333321 129.637343,246.556202 130.514208,246.556202 L133.485792,246.556202 Z M137.805142,234.255442 C137.805142,234.411461 137.723952,234.489469 137.56157,234.489469 L126.43843,234.489469 C126.276048,234.489469 126.194858,234.411461 126.194858,234.255442 L126.194858,232.567103 C126.194858,232.444516 126.248985,232.34422 126.35724,232.26621 L131.878214,229.006545 C132.365361,228.716795 132.866033,228.424264 133.380244,228.128943 C133.894455,227.833621 134.373475,227.56895 134.817321,227.334922 L134.801083,227.284773 C134.108251,227.340494 133.372128,227.379498 132.592693,227.401787 C131.813257,227.424075 131.082547,227.435219 130.400541,227.435219 L126.43843,227.435219 C126.276048,227.435219 126.194858,227.351639 126.194858,227.184476 L126.194858,225.680015 C126.194858,225.512851 126.276048,225.429271 126.43843,225.429271 L137.56157,225.429271 C137.723952,225.429271 137.805142,225.512851 137.805142,225.680015 L137.805142,227.368354 C137.805142,227.49094 137.751015,227.585665 137.64276,227.65253 L132.560217,230.811898 C132.073069,231.123936 131.539922,231.441541 130.960758,231.764723 C130.381594,232.087906 129.848446,232.366507 129.361299,232.600535 L129.377537,232.650684 C130.081194,232.606107 130.828142,232.569889 131.618403,232.542028 C132.408664,232.514168 133.1502,232.500238 133.843031,232.500238 L137.56157,232.500238 C137.723952,232.500238 137.805142,232.578246 137.805142,232.734265 L137.805142,234.255442 Z M126.194858,212.476578 C126.194858,212.309415 126.276048,212.225835 126.43843,212.225835 L127.769959,212.225835 C127.921516,212.225835 127.997294,212.309415 127.997294,212.476578 L127.997294,215.836541 L137.56157,215.836541 C137.723952,215.836541 137.805142,215.91455 137.805142,216.070569 L137.805142,217.608462 C137.805142,217.764481 137.723952,217.842489 137.56157,217.842489 L127.997294,217.842489 L127.997294,221.219168 C127.997294,221.386332 127.921516,221.469912 127.769959,221.469912 L126.43843,221.469912 C126.276048,221.469912 126.194858,221.386332 126.194858,221.219168 L126.194858,212.476578 Z M136.018945,206.243812 L136.018945,200.877901 C136.018945,200.710738 136.094722,200.627157 136.246279,200.627157 L137.56157,200.627157 C137.723952,200.627157 137.805142,200.710738 137.805142,200.877901 L137.805142,208.032449 C137.805142,208.188467 137.723952,208.266476 137.56157,208.266476 L126.43843,208.266476 C126.276048,208.266476 126.194858,208.188467 126.194858,208.032449 L126.194858,201.111928 C126.194858,200.944765 126.276048,200.861185 126.43843,200.861185 L127.753721,200.861185 C127.905278,200.861185 127.981055,200.944765 127.981055,201.111928 L127.981055,206.243812 L131.017591,206.243812 L131.017591,201.54655 C131.017591,201.379387 131.098781,201.295807 131.261164,201.295807 L132.560217,201.295807 C132.722599,201.295807 132.803789,201.379387 132.803789,201.54655 L132.803789,206.243812 L136.018945,206.243812 Z M137.805142,195.848703 C137.805142,196.004722 137.723952,196.08273 137.56157,196.08273 L126.43843,196.08273 C126.276048,196.08273 126.194858,196.004722 126.194858,195.848703 L126.194858,194.160363 C126.194858,194.037777 126.248985,193.93748 126.35724,193.859471 L131.878214,190.599805 C132.365361,190.310056 132.866033,190.017525 133.380244,189.722203 C133.894455,189.426882 134.373475,189.162211 134.817321,188.928182 L134.801083,188.878033 C134.108251,188.933754 133.372128,188.972759 132.592693,188.995047 C131.813257,189.017335 131.082547,189.02848 130.400541,189.02848 L126.43843,189.02848 C126.276048,189.02848 126.194858,188.944899 126.194858,188.777736 L126.194858,187.273275 C126.194858,187.106112 126.276048,187.022532 126.43843,187.022532 L137.56157,187.022532 C137.723952,187.022532 137.805142,187.106112 137.805142,187.273275 L137.805142,188.961615 C137.805142,189.084201 137.751015,189.178925 137.64276,189.245791 L132.560217,192.405159 C132.073069,192.717197 131.539922,193.034802 130.960758,193.357984 C130.381594,193.681166 129.848446,193.959767 129.361299,194.193796 L129.377537,194.243944 C130.081194,194.199367 130.828142,194.163149 131.618403,194.135289 C132.408664,194.107428 133.1502,194.093498 133.843031,194.093498 L137.56157,194.093498 C137.723952,194.093498 137.805142,194.171506 137.805142,194.327525 L137.805142,195.848703 Z M137.805142,181.659009 C137.805142,181.815028 137.723952,181.893036 137.56157,181.893036 L126.43843,181.893036 C126.276048,181.893036 126.194858,181.815028 126.194858,181.659009 L126.194858,177.513383 C126.194858,176.822442 126.284167,176.198375 126.462788,175.641165 C126.641408,175.083954 126.909335,174.610332 127.266576,174.220285 C127.623818,173.830238 128.070363,173.529348 128.606225,173.317608 C129.142087,173.105868 129.767249,173 130.481732,173 L133.566982,173 C134.27064,173 134.887683,173.105868 135.418133,173.317608 C135.948582,173.529348 136.389714,173.830238 136.741543,174.220285 C137.093371,174.610332 137.358592,175.083954 137.537212,175.641165 C137.715833,176.198375 137.805142,176.822442 137.805142,177.513383 L137.805142,181.659009 Z M135.97023,179.870372 L135.97023,177.513383 C135.97023,176.711 135.775374,176.106435 135.385656,175.699672 C134.995939,175.292908 134.395133,175.089529 133.583221,175.089529 L130.465494,175.089529 C128.820019,175.089529 127.997294,175.897472 127.997294,177.513383 L127.997294,179.870372 L135.97023,179.870372 Z" id="left-shape"></path>
        </g>
    </g>
</svg>