<?xml version="1.0" encoding="UTF-8"?>
<svg width="160px" height="18px" viewBox="0 0 160 18" version="1.1" xmlns="http://www.w3.org/2000/svg" xmlns:xlink="http://www.w3.org/1999/xlink">
    <!-- Generator: Sketch 52.6 (67491) - http://www.bohemiancoding.com/sketch -->
    <title>Logo</title>
    <desc>Created with Sketch.</desc>
    <g id="Page-1" stroke="none" stroke-width="1" fill="none" fill-rule="evenodd">
        <g id="Bootstrap-4" transform="translate(-76.000000, -32.000000)" fill="#FF304F">
            <path d="M76.4351204,49.6842105 C76.1450387,49.6842105 76,49.538463 76,49.2469636 L76,32.7530364 C76,32.461537 76.1450387,32.3157895 76.4351204,32.3157895 L79.4809636,32.3157895 C79.7549297,32.3157895 79.8919106,32.461537 79.8919106,32.7530364 L79.8919106,46.0647773 L86.4912374,46.0647773 C86.7652035,46.0647773 86.9021845,46.2024278 86.9021845,46.4777328 L86.9021845,49.2469636 C86.9021845,49.538463 86.7652035,49.6842105 86.4912374,49.6842105 L76.4351204,49.6842105 Z M105.633083,43.0769231 C105.633083,45.2631688 105.016669,46.9595081 103.783821,48.1659919 C102.550974,49.3724757 100.814538,49.9757085 98.5744626,49.9757085 C96.3505026,49.9757085 94.6221248,49.3724757 93.3892773,48.1659919 C92.1564299,46.9595081 91.5400154,45.2631688 91.5400154,43.0769231 L91.5400154,38.8744939 C91.5400154,36.7044426 92.1564299,35.0162004 93.3892773,33.8097166 C94.6221248,32.6032328 96.3505026,32 98.5744626,32 C100.814538,32 102.550974,32.6032328 103.783821,33.8097166 C105.016669,35.0162004 105.633083,36.7044426 105.633083,38.8744939 L105.633083,43.0769231 Z M95.5044462,43.0040486 C95.5044462,45.1902943 96.5277748,46.2834008 98.5744626,46.2834008 C100.621151,46.2834008 101.644479,45.1902943 101.644479,43.0040486 L101.644479,38.9473684 C101.644479,36.7773171 100.621151,35.6923077 98.5744626,35.6923077 C96.5277748,35.6923077 95.5044462,36.7773171 95.5044462,38.9473684 L95.5044462,43.0040486 Z M124.774929,47.4736842 C124.033609,48.2348216 123.127117,48.8461515 122.055426,49.3076923 C120.983735,49.7692331 119.819397,50 118.562376,50 C117.530974,50 116.588223,49.8623496 115.734093,49.5870445 C114.879963,49.3117395 114.142683,48.8987882 113.522231,48.3481781 C112.901778,47.7975681 112.422345,47.117413 112.083916,46.3076923 C111.745487,45.4979717 111.576275,44.5668069 111.576275,43.51417 L111.576275,38.437247 C111.576275,37.3846101 111.745487,36.4574939 112.083916,35.6558704 C112.422345,34.854247 112.897749,34.1821889 113.510144,33.6396761 C114.122539,33.0971633 114.85579,32.6882605 115.70992,32.4129555 C116.564049,32.1376504 117.506801,32 118.538203,32 C119.569604,32 120.592933,32.1376504 121.608219,32.4129555 C122.623505,32.6882605 123.534026,33.0769206 124.339809,33.5789474 C124.581543,33.7408915 124.621832,33.9433186 124.460675,34.1862348 L122.84106,36.5182186 C122.679904,36.7449404 122.486519,36.7773287 122.2609,36.6153846 C121.213382,35.9999969 119.964438,35.6923077 118.514029,35.6923077 C117.595437,35.6923077 116.866215,35.9352202 116.32634,36.4210526 C115.786466,36.906885 115.516533,37.6194285 115.516533,38.5587045 L115.516533,43.3927126 C115.516533,44.3643773 115.794524,45.0890664 116.350514,45.5668016 C116.906504,46.0445368 117.643784,46.2834008 118.562376,46.2834008 C119.078077,46.2834008 119.569597,46.2226727 120.036951,46.1012146 C120.504305,45.9797565 120.90719,45.8137662 121.245619,45.6032389 L121.245619,42.8097166 L118.659069,42.8097166 C118.385103,42.8097166 118.248122,42.6639691 118.248122,42.3724696 L118.248122,39.9919028 C118.248122,39.7165978 118.385103,39.5789474 118.659069,39.5789474 L124.533195,39.5789474 C124.807161,39.5789474 124.944142,39.7165978 124.944142,39.9919028 L124.944142,46.9878543 C124.944142,47.1983816 124.887739,47.3603233 124.774929,47.4736842 Z M144.932056,43.0769231 C144.932056,45.2631688 144.315641,46.9595081 143.082794,48.1659919 C141.849946,49.3724757 140.113511,49.9757085 137.873435,49.9757085 C135.649475,49.9757085 133.921097,49.3724757 132.68825,48.1659919 C131.455403,46.9595081 130.838988,45.2631688 130.838988,43.0769231 L130.838988,38.8744939 C130.838988,36.7044426 131.455403,35.0162004 132.68825,33.8097166 C133.921097,32.6032328 135.649475,32 137.873435,32 C140.113511,32 141.849946,32.6032328 143.082794,33.8097166 C144.315641,35.0162004 144.932056,36.7044426 144.932056,38.8744939 L144.932056,43.0769231 Z M134.803419,43.0040486 C134.803419,45.1902943 135.826747,46.2834008 137.873435,46.2834008 C139.920123,46.2834008 140.943452,45.1902943 140.943452,43.0040486 L140.943452,38.9473684 C140.943452,36.7773171 139.920123,35.6923077 137.873435,35.6923077 C135.826747,35.6923077 134.803419,36.7773171 134.803419,38.9473684 L134.803419,43.0040486 Z M160.275231,49.6842105 C159.985149,49.6842105 159.84011,49.538463 159.84011,49.2469636 L159.84011,32.7530364 C159.84011,32.461537 159.985149,32.3157895 160.275231,32.3157895 L163.490287,32.3157895 C163.715906,32.3157895 163.87706,32.4129545 163.973754,32.6072874 L167.212984,38.4129555 C167.728685,39.3846202 168.220205,40.3400763 168.687559,41.2793522 C169.154913,42.2186282 169.525568,42.9959483 169.799534,43.611336 L169.872054,43.5870445 C169.791475,42.4858245 169.727014,41.3846209 169.678667,40.2834008 C169.63032,39.1821807 169.606147,38.1214626 169.606147,37.1012146 L169.606147,32.7530364 C169.606147,32.461537 169.751185,32.3157895 170.041267,32.3157895 L173.038764,32.3157895 C173.31273,32.3157895 173.449711,32.461537 173.449711,32.7530364 L173.449711,49.2469636 C173.449711,49.538463 173.31273,49.6842105 173.038764,49.6842105 L169.823707,49.6842105 C169.598088,49.6842105 169.428876,49.5870455 169.316067,49.3927126 L166.17353,44.145749 C165.899564,43.6923054 165.629631,43.2105289 165.363722,42.7004049 C165.097814,42.1902809 164.839968,41.6801645 164.590175,41.1700405 C164.340382,40.6599165 164.110738,40.1700428 163.901234,39.7004049 C163.691731,39.2307669 163.514461,38.8259126 163.36942,38.48583 L163.2969,38.5101215 C163.40971,39.627536 163.502374,40.7935162 163.574894,42.0080972 C163.647414,43.2226781 163.683674,44.3643671 163.683674,45.4331984 L163.683674,49.2469636 C163.683674,49.538463 163.546693,49.6842105 163.272727,49.6842105 L160.275231,49.6842105 Z M179.151169,49.6842105 C178.812741,49.6842105 178.699933,49.5222688 178.812742,49.1983806 L184.420962,32.6558704 C184.517655,32.4291487 184.670752,32.3157895 184.880255,32.3157895 L188.554606,32.3157895 C188.780225,32.3157895 188.933321,32.4291487 189.0139,32.6558704 L194.622119,49.1983806 C194.751044,49.5222688 194.638236,49.6842105 194.283692,49.6842105 L191.068635,49.6842105 C190.794669,49.6842105 190.625457,49.5627543 190.560994,49.3198381 L189.66658,46.3562753 L183.792454,46.3562753 L182.873867,49.3198381 C182.793288,49.5627543 182.632134,49.6842105 182.390399,49.6842105 L179.151169,49.6842105 Z M186.669084,36.5668016 C186.540159,36.9716619 186.403178,37.4331958 186.258137,37.951417 C186.113096,38.4696382 185.955971,39.0121429 185.786756,39.5789474 C185.617542,40.1457518 185.44833,40.7206449 185.279116,41.3036437 C185.109901,41.8866426 184.944718,42.4453415 184.783562,42.9797571 L188.675473,42.9797571 C188.4982,42.4453415 188.32496,41.8866426 188.155745,41.3036437 C187.986531,40.7206449 187.817319,40.1457518 187.648105,39.5789474 C187.47889,39.0121429 187.317736,38.4696382 187.164638,37.951417 C187.011539,37.4331958 186.878587,36.9716619 186.765777,36.5668016 L186.669084,36.5668016 Z M200.420271,49.6842105 C200.130189,49.6842105 199.98515,49.538463 199.98515,49.2469636 L199.98515,32.7530364 C199.98515,32.461537 200.130189,32.3157895 200.420271,32.3157895 L203.852888,32.3157895 C204.078507,32.3157895 204.239661,32.4210516 204.336355,32.6315789 L206.511957,36.8582996 C206.705345,37.2307711 206.906787,37.6396739 207.116291,38.0850202 C207.325794,38.5303666 207.531266,38.9797548 207.732712,39.4331984 C207.934157,39.8866419 208.119484,40.3076904 208.288699,40.6963563 C208.457913,41.0850222 208.590865,41.4008085 208.687559,41.6437247 L208.784253,41.6437247 C208.880947,41.4008085 209.013899,41.0850222 209.183113,40.6963563 C209.352327,40.3076904 209.537655,39.8866419 209.7391,39.4331984 C209.940546,38.9797548 210.146017,38.5303666 210.355521,38.0850202 C210.565024,37.6396739 210.758409,37.2307711 210.935681,36.8582996 L213.135457,32.6315789 C213.232151,32.4210516 213.393305,32.3157895 213.618924,32.3157895 L217.051541,32.3157895 C217.325507,32.3157895 217.462488,32.461537 217.462488,32.7530364 L217.462488,49.2469636 C217.462488,49.538463 217.325507,49.6842105 217.051541,49.6842105 L214.054045,49.6842105 C213.763963,49.6842105 213.618924,49.538463 213.618924,49.2469636 L213.618924,46.0404858 C213.618924,45.4898758 213.622953,44.89474 213.631011,44.2550607 C213.639069,43.6153814 213.655184,42.9595175 213.679358,42.2874494 C213.703531,41.6153813 213.731733,40.9352261 213.763964,40.2469636 C213.796196,39.558701 213.828427,38.8987886 213.860658,38.2672065 L213.763964,38.242915 C213.651155,38.51822 213.510145,38.854249 213.340931,39.2510121 C213.171716,39.6477753 212.986389,40.0647751 212.784943,40.5020243 C212.583498,40.9392734 212.378026,41.3846131 212.168523,41.8380567 C211.959019,42.2915002 211.757577,42.7206457 211.564189,43.1255061 L210.379694,45.5303644 C210.266885,45.7408917 210.105731,45.8461538 209.896227,45.8461538 L207.575585,45.8461538 C207.33385,45.8461538 207.172696,45.7408917 207.092118,45.5303644 L205.88345,43.1255061 C205.690062,42.7206457 205.488619,42.2915002 205.279116,41.8380567 C205.069612,41.3846131 204.864141,40.9392734 204.662695,40.5020243 C204.461249,40.0647751 204.275922,39.6477753 204.106708,39.2510121 C203.937493,38.854249 203.796484,38.51822 203.683674,38.242915 L203.586981,38.2672065 C203.619212,38.8987886 203.651443,39.558701 203.683674,40.2469636 C203.715905,40.9352261 203.744107,41.6153813 203.768281,42.2874494 C203.792454,42.9595175 203.80857,43.6153814 203.816628,44.2550607 C203.824685,44.89474 203.828714,45.4898758 203.828714,46.0404858 L203.828714,49.2469636 C203.828714,49.538463 203.683676,49.6842105 203.393594,49.6842105 L200.420271,49.6842105 Z M228.385392,46.1619433 L235.56488,46.1619433 C235.854961,46.1619433 236,46.2995938 236,46.5748988 L236,49.2469636 C236,49.538463 235.854961,49.6842105 235.56488,49.6842105 L224.928602,49.6842105 C224.63852,49.6842105 224.493482,49.538463 224.493482,49.2469636 L224.493482,32.7530364 C224.493482,32.461537 224.63852,32.3157895 224.928602,32.3157895 L235.178106,32.3157895 C235.468188,32.3157895 235.613226,32.461537 235.613226,32.7530364 L235.613226,35.4251012 C235.613226,35.7004062 235.468188,35.8380567 235.178106,35.8380567 L228.385392,35.8380567 L228.385392,39.1659919 L234.380385,39.1659919 C234.670467,39.1659919 234.815505,39.3036423 234.815505,39.5789474 L234.815505,42.2024291 C234.815505,42.4777342 234.670467,42.6153846 234.380385,42.6153846 L228.385392,42.6153846 L228.385392,46.1619433 Z" id="Logo"></path>
        </g>
    </g>
</svg>