<?xml version="1.0" encoding="UTF-8"?>
<svg width="173px" height="40px" viewBox="0 0 173 40" version="1.1" xmlns="http://www.w3.org/2000/svg" xmlns:xlink="http://www.w3.org/1999/xlink">
    <!-- Generator: Sketch 52.6 (67491) - http://www.bohemiancoding.com/sketch -->
    <title>Logo</title>
    <desc>Created with Sketch.</desc>
    <g id="Page-1" stroke="none" stroke-width="1" fill="none" fill-rule="evenodd">
        <g id="Gird-CSS" transform="translate(-75.000000, -25.000000)">
            <g id="Logo" transform="translate(75.000000, 25.000000)">
                <path d="M18.9960076,19.6825397 L17.1390519,22.9875915 L22.8308824,33.1632653 L27.530239,24.7619048 L36.3218583,24.7619048 L38.0514706,27.9365079 L34.2463235,27.9365079 L34.1149782,27.9365079 L32.3154914,29.7380645 L31.869166,28.9436844 L30.2912476,31.7646367 L22.0653459,40 L21.2315589,40 C20.5185875,40 19.8568326,39.6450314 19.4608282,39.0609824 L29.396849,29.113533 C29.5210348,29.1730311 29.6601236,29.2063492 29.8069853,29.2063492 C30.3323665,29.2063492 30.7582721,28.7799537 30.7582721,28.2539683 C30.7582721,27.7279828 30.3323665,27.3015873 29.8069853,27.3015873 C29.2816041,27.3015873 28.8556985,27.7279828 28.8556985,28.2539683 C28.8556985,28.4009989 28.8889784,28.5402477 28.9484081,28.6645763 L19.1330682,38.491206 L17.7573529,36.031746 L17.7573529,29.2063492 L17.7573529,29.0748528 L15.2205882,26.5351703 L15.2205882,22.8029506 C15.5900656,22.6722089 15.8547794,22.3194345 15.8547794,21.9047619 C15.8547794,21.3787764 15.4288738,20.952381 14.9034926,20.952381 C14.3781115,20.952381 13.9522059,21.3787764 13.9522059,21.9047619 C13.9522059,22.3194345 14.2169197,22.6722089 14.5863971,22.8029506 L14.5863971,26.6666667 L14.5863971,26.798163 L17.1231618,29.3378456 L17.1231618,34.8979592 L13.7925987,28.9436844 L9.98851103,35.7142857 C8.96098449,35.7142857 8.01801329,35.3518448 7.28019004,34.7476944 L11.4154412,30.6076868 L11.4154412,30.4761905 L11.4154412,26.6124744 C11.7849185,26.4817327 12.0496324,26.1289584 12.0496324,25.7142857 C12.0496324,25.1883002 11.6237268,24.7619048 11.0983456,24.7619048 C10.5729644,24.7619048 10.1470588,25.1883002 10.1470588,25.7142857 C10.1470588,26.1289584 10.4117726,26.4817327 10.78125,26.6124744 L10.78125,30.3446941 L6.82003937,34.310461 C6.12894343,33.549342 5.70772059,32.5382043 5.70772059,31.4285714 L10.3827944,22.8477444 L8.61231618,19.6825397 L18.9960076,19.6825397 Z M19.3527401,19.047619 L8.25716912,19.047619 L0,4.28571429 L0,4.28079044 C-1.34909331e-17,4.17062861 0.00416115689,4.06143867 0.0123348651,3.95336923 L11.9182871,15.8730159 L12.0496324,15.8730159 L13.1594669,15.8730159 L13.6778765,16.799812 L14.1828209,15.8730159 L17.811483,15.8730159 C17.9420745,16.2429182 18.2944435,16.5079365 18.7086397,16.5079365 C19.2340209,16.5079365 19.6599265,16.081541 19.6599265,15.5555556 C19.6599265,15.0295701 19.2340209,14.6031746 18.7086397,14.6031746 C18.2944435,14.6031746 17.9420745,14.8681929 17.811483,15.2380952 L14.5287433,15.2380952 L16.9502005,10.7936508 L28.7115642,10.7936508 L31.1330214,15.2380952 L24.1686294,15.2380952 L22.8308824,12.8571429 L19.3527401,19.047619 Z M24.5253619,15.8730159 L31.4789439,15.8730159 L31.9838882,16.799812 L32.5022978,15.8730159 L39.1803309,15.8730159 L35.2789703,22.8477444 L35.9759358,24.1269841 L27.885386,24.1269841 L28.5227129,22.9875915 L24.5253619,15.8730159 Z M0.141576398,3.18484605 C0.408241535,2.17501875 1.03464593,1.31133984 1.87539335,0.739205557 L8.28193111,7.15311224 L12.8043199,15.2380952 L12.1809776,15.2380952 L0.141576398,3.18484605 Z M2.4456458,0.412200554 C3.00182542,0.147896298 3.62403642,1.20643757e-16 4.28079044,0 L7.14044523,5.11240003 L2.4456458,0.412200554 Z M17.296123,10.1587302 L18.9392547,7.14285714 L19.3831028,6.34920635 L21.9337256,6.34920635 C22.0643171,6.71910869 22.4166861,6.98412698 22.8308824,6.98412698 C23.3562635,6.98412698 23.7821691,6.55773151 23.7821691,6.03174603 C23.7821691,5.50576056 23.3562635,5.07936508 22.8308824,5.07936508 C22.4166861,5.07936508 22.0643171,5.34438337 21.9337256,5.71428571 L19.7381813,5.71428571 L19.9259248,5.37857897 C20.3049373,4.70352431 21.0182593,4.28571429 21.7917596,4.28571429 L22.8308824,4.28571429 L23.8700051,4.28571429 C24.6435054,4.28571429 25.3568274,4.70352431 25.7358399,5.37857897 L26.72251,7.14285714 L28.3656417,10.1587302 L17.296123,10.1587302 Z M32.8574449,15.2380952 L35.3434743,10.7936508 L38.6856618,10.7936508 L38.8170071,10.7936508 L42.8079044,6.79816304 L42.8079044,6.66666667 L42.8079044,3.12041089 C43.1773818,2.98966917 43.4420956,2.63689487 43.4420956,2.22222222 C43.4420956,1.69623675 43.01619,1.26984127 42.4908088,1.26984127 C41.9654277,1.26984127 41.5395221,1.69623675 41.5395221,2.22222222 C41.5395221,2.63689487 41.8042359,2.98966917 42.1737132,3.12041089 L42.1737132,6.5351703 L38.5543165,10.1587302 L35.6986213,10.1587302 L41.3809743,0 C43.7451895,4.34299301e-16 45.6617647,1.91657516 45.6617647,4.28079044 L45.6617647,4.28571429 L39.5354779,15.2380952 L32.8574449,15.2380952 Z M38.397393,28.5714286 L39.3481065,30.316408 L35.0551973,34.614255 L32.6383689,30.3127291 L34.3776688,28.5714286 L38.397393,28.5714286 Z M39.664653,30.8974108 L39.9540441,31.4285714 C39.9540441,33.7955061 38.037469,35.7142857 35.6732537,35.7142857 L35.3780747,35.1889196 L39.664653,30.8974108 Z M29.1497617,33.8053489 L26.2977136,38.9041501 C25.9191809,39.5808788 25.2049297,40 24.4302058,40 L22.9622276,40 L29.1497617,33.8053489 Z M34.3004536,19.047619 L29.7528553,19.047619 C29.6222638,18.6777167 29.2698948,18.4126984 28.8556985,18.4126984 C28.3303174,18.4126984 27.9044118,18.8390939 27.9044118,19.3650794 C27.9044118,19.8910648 28.3303174,20.3174603 28.8556985,20.3174603 C29.2698948,20.3174603 29.6222638,20.052442 29.7528553,19.6825397 L34.3004536,19.6825397 C34.4310451,20.052442 34.7834141,20.3174603 35.1976103,20.3174603 C35.7229915,20.3174603 36.1488971,19.8910648 36.1488971,19.3650794 C36.1488971,18.8390939 35.7229915,18.4126984 35.1976103,18.4126984 C34.7834141,18.4126984 34.4310451,18.6777167 34.3004536,19.047619 Z" id="Combined-Shape" fill="#FF304F"></path>
                <path d="M98.9338235,21.2698413 C98.9338235,23.3737832 97.2302012,25.0793651 95.1286765,25.0793651 L89.1525735,25.0793651 C88.6002888,25.0793651 88.1525735,24.6316498 88.1525735,24.0793651 L88.1525735,12.1111111 C88.1525735,11.5588264 88.6002888,11.1111111 89.1525735,11.1111111 L94.4944853,11.1111111 C96.59601,11.1111111 98.2996324,12.816693 98.2996324,14.9206349 C98.2996324,16.119664 97.7463264,17.189313 96.8813931,17.8876253 C98.1008851,18.5223315 98.9338235,19.7987029 98.9338235,21.2698413 Z M91.0064338,22.8571429 L94.4944853,22.8571429 C95.3701206,22.8571429 96.0799632,22.1464837 96.0799632,21.2698413 L96.0799632,20.952381 C96.0799632,20.0757385 95.3701206,19.3650794 94.4944853,19.3650794 L91.0064338,19.3650794 L91.0064338,22.8571429 Z M91.0064338,17.1428571 L93.8602941,17.1428571 C94.7359294,17.1428571 95.4457721,16.432198 95.4457721,15.5555556 L95.4457721,14.9841271 C95.4457721,14.2477474 94.8495042,13.6507937 94.1139705,13.6507937 L91.0064338,13.6507937 L91.0064338,17.1428571 Z M75.1516544,22.5396825 L81.1764706,22.5396825 C81.5267247,22.5396825 81.8106618,22.8239462 81.8106618,23.1746032 L81.8106618,24.4444444 C81.8106618,24.7951014 81.5267247,25.0793651 81.1764706,25.0793651 L72.9319853,25.0793651 C72.5817312,25.0793651 72.2977941,24.7951014 72.2977941,24.4444444 L72.2977941,11.7460317 C72.2977941,11.3953748 72.5817312,11.1111111 72.9319853,11.1111111 L80.859375,11.1111111 C81.2096291,11.1111111 81.4935662,11.3953748 81.4935662,11.7460317 L81.4935662,13.015873 C81.4935662,13.36653 81.2096291,13.6507937 80.859375,13.6507937 L75.1516544,13.6507937 L75.1516544,16.8253968 L79.9080882,16.8253968 C80.2583424,16.8253968 80.5422794,17.1096605 80.5422794,17.4603175 L80.5422794,18.7301587 C80.5422794,19.0808157 80.2583424,19.3650794 79.9080882,19.3650794 L75.1516544,19.3650794 L75.1516544,22.5396825 Z M115.73989,16.3492063 L113.203125,20.6349206 L111.300551,20.6349206 L108.763787,16.3492063 L108.763787,24.0793651 C108.763787,24.6316498 108.316072,25.0793651 107.763787,25.0793651 L106.909926,25.0793651 C106.357642,25.0793651 105.909926,24.6316498 105.909926,24.0793651 L105.909926,12.1111111 C105.909926,11.5588264 106.357642,11.1111111 106.909926,11.1111111 L108.763787,11.1111111 L112.251838,17.4603175 L115.73989,11.1111111 L117.59375,11.1111111 C118.146035,11.1111111 118.59375,11.5588264 118.59375,12.1111111 L118.59375,24.0793651 C118.59375,24.6316498 118.146035,25.0793651 117.59375,25.0793651 L116.73989,25.0793651 C116.187605,25.0793651 115.73989,24.6316498 115.73989,24.0793651 L115.73989,16.3492063 Z M61.8336397,19.8412698 L61.8336397,11.7460317 C61.8336397,11.3953748 62.1175768,11.1111111 62.4678309,11.1111111 L64.0533088,11.1111111 C64.4035629,11.1111111 64.6875,11.3953748 64.6875,11.7460317 L64.6875,24.0793651 C64.6875,24.6316498 64.2397847,25.0793651 63.6875,25.0793651 L61.8336397,25.0793651 L58.3455882,18.7301587 L54.8575368,25.0793651 L53.0036765,25.0793651 C52.4513917,25.0793651 52.0036765,24.6316498 52.0036765,24.0793651 L52.0036765,11.7460317 C52.0036765,11.3953748 52.2876135,11.1111111 52.6378676,11.1111111 L54.2233456,11.1111111 C54.5735997,11.1111111 54.8575368,11.3953748 54.8575368,11.7460317 L54.8575368,19.8412698 L57.3943015,15.5555556 L59.296875,15.5555556 L61.8336397,19.8412698 Z M133.285846,21.5873016 L128.63511,21.5873016 L127.700198,24.3952658 C127.564184,24.8037752 127.181963,25.0793651 126.751405,25.0793651 L125.570947,25.0793651 C125.044962,25.0793651 124.618566,24.6529696 124.618566,24.1269841 L129.375,11.1111111 L132.545956,11.1111111 L137.30239,24.1269841 L137.30239,24.1269841 C137.30239,24.6529696 136.875994,25.0793651 136.350009,25.0793651 L135.169551,25.0793651 C134.738993,25.0793651 134.356772,24.8037752 134.220758,24.3952658 L133.285846,21.5873016 Z M132.545956,19.3650794 L130.960478,14.6031746 L129.375,19.3650794 L132.545956,19.3650794 Z M146.181066,16.8253968 L151.254596,16.8253968 L151.254596,12.1111111 C151.254596,11.5588264 151.702311,11.1111111 152.254596,11.1111111 L153.108456,11.1111111 C153.660741,11.1111111 154.108456,11.5588264 154.108456,12.1111111 L154.108456,24.0793651 C154.108456,24.6316498 153.660741,25.0793651 153.108456,25.0793651 L152.254596,25.0793651 C151.702311,25.0793651 151.254596,24.6316498 151.254596,24.0793651 L151.254596,19.3650794 L146.181066,19.3650794 L146.181066,24.0793651 C146.181066,24.6316498 145.733351,25.0793651 145.181066,25.0793651 L144.327206,25.0793651 C143.774921,25.0793651 143.327206,24.6316498 143.327206,24.0793651 L143.327206,12.1111111 C143.327206,11.5588264 143.774921,11.1111111 144.327206,11.1111111 L145.181066,11.1111111 C145.733351,11.1111111 146.181066,11.5588264 146.181066,12.1111111 L146.181066,16.8253968 Z M166.158088,13.3333333 C164.757072,13.3333333 163.621324,14.4703879 163.621324,15.8730159 L163.621324,20.3174603 C163.621324,21.7200883 164.757072,22.8571429 166.158088,22.8571429 L167.426471,22.8571429 C168.827487,22.8571429 169.963235,21.7200883 169.963235,20.3174603 L169.963235,15.8730159 C169.963235,14.4703879 168.827487,13.3333333 167.426471,13.3333333 L166.158088,13.3333333 Z M166.158088,10.7936508 L167.426471,10.7936508 C170.228504,10.7936508 172.5,13.06776 172.5,15.8730159 L172.5,20.3174603 C172.5,23.1227162 170.228504,25.3968254 167.426471,25.3968254 L166.158088,25.3968254 C163.356055,25.3968254 161.084559,23.1227162 161.084559,20.3174603 L161.084559,15.8730159 C161.084559,13.06776 163.356055,10.7936508 166.158088,10.7936508 Z" id="Shape" fill="#212121"></path>
                <path d="M56.2706941,33.4320034 C56.2706941,34.1115435 56.0842852,34.6353478 55.711462,35.003432 C55.3386387,35.3715162 54.8126083,35.5555556 54.1333549,35.5555556 C53.4541016,35.5555556 52.9293479,35.3715162 52.5590782,35.003432 C52.1888085,34.6353478 52.0036765,34.1115435 52.0036765,33.4320034 L52.0036765,30.0806521 C52.0036765,29.9879875 52.0496403,29.9416559 52.1415693,29.9416559 L53.11448,29.9416559 C53.206409,29.9416559 53.2523728,29.9879875 53.2523728,30.0806521 L53.2523728,33.4320034 C53.2523728,33.7460333 53.3277024,33.9828392 53.4783639,34.1424281 C53.6290253,34.3020171 53.8473535,34.3818104 54.1333549,34.3818104 C54.4193563,34.3818104 54.640238,34.3020171 54.7960067,34.1424281 C54.9517753,33.9828392 55.0296584,33.7460333 55.0296584,33.4320034 L55.0296584,30.0806521 C55.0296584,29.9879875 55.0730687,29.9416559 55.1598906,29.9416559 L56.1404619,29.9416559 C56.2272838,29.9416559 56.2706941,29.9879875 56.2706941,30.0806521 L56.2706941,33.4320034 Z M65.4329077,35.3007293 C65.4584435,35.3419135 65.4635506,35.3792362 65.4482291,35.4126984 C65.4329076,35.4461606 65.3971579,35.4628915 65.3409791,35.4628915 L64.2148542,35.4628915 C64.1433538,35.4628915 64.0922829,35.4294298 64.0616399,35.3625054 L63.1346935,33.6173316 L62.2154079,35.3625054 C62.1745505,35.4294298 62.1209261,35.4628915 62.0545329,35.4628915 L60.9284079,35.4628915 C60.8773363,35.4628915 60.8428634,35.4461606 60.8249883,35.4126984 C60.8071132,35.3792362 60.8109435,35.3419135 60.8364794,35.3007293 L62.3686221,32.6906907 L60.9590508,30.1038181 C60.933515,30.0574858 60.9296846,30.0188762 60.9475597,29.987988 C60.9654348,29.9570998 61.0024612,29.9416559 61.0586401,29.9416559 L62.1388007,29.9416559 C62.2103011,29.9416559 62.261372,29.9751176 62.292015,30.042042 L63.1346935,31.7949378 L63.977372,30.042042 C64.008015,29.9751176 64.059086,29.9416559 64.1305863,29.9416559 L65.2184077,29.9416559 C65.2694794,29.9416559 65.305229,29.9570998 65.3256577,29.987988 C65.3460863,30.0188762 65.3435328,30.0574858 65.317997,30.1038181 L63.9084256,32.6906907 L65.4329077,35.3007293 Z M70.7954072,35.3625054 C70.7749785,35.4294298 70.7239076,35.4628915 70.6421929,35.4628915 L69.7612108,35.4628915 C69.6539603,35.4628915 69.6207642,35.4114119 69.6616216,35.3084513 L71.8066214,30.042042 C71.8270501,29.9751176 71.878121,29.9416559 71.9598357,29.9416559 L72.8254964,29.9416559 C72.876568,29.9416559 72.9123177,29.9558128 72.9327464,29.984127 C72.953175,30.0124412 72.9506215,30.0497638 72.9250856,30.0960961 L70.7954072,35.3625054 Z M81.8574778,33.4320034 C81.8574778,34.1115435 81.671069,34.6353478 81.2982457,35.003432 C80.9254225,35.3715162 80.399392,35.5555556 79.7201387,35.5555556 C79.0408853,35.5555556 78.5161317,35.3715162 78.145862,35.003432 C77.7755923,34.6353478 77.5904602,34.1115435 77.5904602,33.4320034 L77.5904602,30.0806521 C77.5904602,29.9879875 77.6364241,29.9416559 77.7283531,29.9416559 L78.7012637,29.9416559 C78.7931928,29.9416559 78.8391566,29.9879875 78.8391566,30.0806521 L78.8391566,33.4320034 C78.8391566,33.7460333 78.9144862,33.9828392 79.0651477,34.1424281 C79.2158091,34.3020171 79.4341373,34.3818104 79.7201387,34.3818104 C80.0061401,34.3818104 80.2270218,34.3020171 80.3827904,34.1424281 C80.5385591,33.9828392 80.6164422,33.7460333 80.6164422,33.4320034 L80.6164422,30.0806521 C80.6164422,29.9879875 80.6598525,29.9416559 80.7466743,29.9416559 L81.7272457,29.9416559 C81.8140676,29.9416559 81.8574778,29.9879875 81.8574778,30.0806521 L81.8574778,33.4320034 Z M88.1239416,35.3238953 C88.1239416,35.4165599 88.0779778,35.4628915 87.9860488,35.4628915 L87.0284595,35.4628915 C86.9365305,35.4628915 86.8905667,35.4165599 86.8905667,35.3238953 L86.8905667,30.0806521 C86.8905667,29.9879875 86.9365305,29.9416559 87.0284595,29.9416559 L87.9860488,29.9416559 C88.0779778,29.9416559 88.1239416,29.9879875 88.1239416,30.0806521 L88.1239416,35.3238953 Z M98.8642621,35.4628915 C98.7723331,35.4628915 98.7263693,35.4165599 98.7263693,35.3238953 L98.7263693,30.0806521 C98.7263693,29.9879875 98.7723331,29.9416559 98.8642621,29.9416559 L100.748798,29.9416559 C101.055228,29.9416559 101.339948,29.9789786 101.602967,30.0536251 C101.865986,30.1282715 102.095806,30.2505354 102.292432,30.4204204 C102.489058,30.5903054 102.64227,30.8116674 102.752074,31.0845131 C102.861879,31.3573587 102.91678,31.6945497 102.91678,32.0960961 L102.91678,33.3238953 C102.91678,33.7254417 102.861879,34.0626327 102.752074,34.3354783 C102.64227,34.608324 102.489058,34.828399 102.292432,34.99571 C102.095806,35.163021 101.865986,35.2827109 101.602967,35.3547834 C101.339948,35.4268558 101.055228,35.4628915 100.748798,35.4628915 L98.8642621,35.4628915 Z M99.9597442,34.2968683 L100.764119,34.2968683 C101.060335,34.2968683 101.282493,34.2247969 101.430601,34.0806521 C101.578709,33.9365072 101.652762,33.7022753 101.652762,33.3779494 L101.652762,32.03432 C101.652762,31.7099941 101.578709,31.4731882 101.430601,31.3238953 C101.282493,31.1746024 101.060335,31.0999571 100.764119,31.0999571 L99.9597442,31.0999571 L99.9597442,34.2968683 Z M109.060672,34.3432003 L111.335904,34.3432003 C111.427833,34.3432003 111.473797,34.3869579 111.473797,34.4744745 L111.473797,35.3238953 C111.473797,35.4165599 111.427833,35.4628915 111.335904,35.4628915 L107.96519,35.4628915 C107.873261,35.4628915 107.827297,35.4165599 107.827297,35.3238953 L107.827297,30.0806521 C107.827297,29.9879875 107.873261,29.9416559 107.96519,29.9416559 L111.213333,29.9416559 C111.305262,29.9416559 111.351226,29.9879875 111.351226,30.0806521 L111.351226,30.9300729 C111.351226,31.0175895 111.305262,31.0613471 111.213333,31.0613471 L109.060672,31.0613471 L109.060672,32.1192621 L110.960529,32.1192621 C111.052458,32.1192621 111.098422,32.1630197 111.098422,32.2505363 L111.098422,33.0845131 C111.098422,33.1720296 111.052458,33.2157872 110.960529,33.2157872 L109.060672,33.2157872 L109.060672,34.3432003 Z M117.709618,35.4628915 C117.638118,35.4628915 117.5896,35.4268558 117.564064,35.3547834 L115.771457,30.0960961 C115.735707,29.9931355 115.771457,29.9416559 115.878707,29.9416559 L116.920564,29.9416559 C116.992065,29.9416559 117.040582,29.9802656 117.066118,30.0574861 L117.870493,32.5594166 C117.9471,32.806522 118.02243,33.0652067 118.096484,33.3354783 C118.170538,33.60575 118.235653,33.8489908 118.291832,34.0652081 L118.330136,34.0652081 C118.386315,33.8489908 118.45143,33.6070369 118.525484,33.3393393 C118.599538,33.0716417 118.674867,32.814244 118.751475,32.5671386 L119.548189,30.0574861 C119.568618,29.9802656 119.619689,29.9416559 119.701403,29.9416559 L120.7356,29.9416559 C120.847958,29.9416559 120.883707,29.9931355 120.84285,30.0960961 L119.050243,35.3547834 C119.024707,35.4268558 118.97619,35.4628915 118.904689,35.4628915 L117.709618,35.4628915 Z M126.619028,34.3432003 L128.89426,34.3432003 C128.986189,34.3432003 129.032153,34.3869579 129.032153,34.4744745 L129.032153,35.3238953 C129.032153,35.4165599 128.986189,35.4628915 128.89426,35.4628915 L125.523546,35.4628915 C125.431617,35.4628915 125.385653,35.4165599 125.385653,35.3238953 L125.385653,30.0806521 C125.385653,29.9879875 125.431617,29.9416559 125.523546,29.9416559 L128.771689,29.9416559 C128.863618,29.9416559 128.909581,29.9879875 128.909581,30.0806521 L128.909581,30.9300729 C128.909581,31.0175895 128.863618,31.0613471 128.771689,31.0613471 L126.619028,31.0613471 L126.619028,32.1192621 L128.518885,32.1192621 C128.610814,32.1192621 128.656778,32.1630197 128.656778,32.2505363 L128.656778,33.0845131 C128.656778,33.1720296 128.610814,33.2157872 128.518885,33.2157872 L126.619028,33.2157872 L126.619028,34.3432003 Z M134.003956,35.4628915 C133.912027,35.4628915 133.866063,35.4165599 133.866063,35.3238953 L133.866063,30.0806521 C133.866063,29.9879875 133.912027,29.9416559 134.003956,29.9416559 L134.969206,29.9416559 C135.056028,29.9416559 135.099438,29.9879875 135.099438,30.0806521 L135.099438,34.3123123 L137.190813,34.3123123 C137.277635,34.3123123 137.321045,34.3560699 137.321045,34.4435864 L137.321045,35.3238953 C137.321045,35.4165599 137.277635,35.4628915 137.190813,35.4628915 L134.003956,35.4628915 Z M146.107884,33.3625054 C146.107884,34.0574895 145.912537,34.5967377 145.521839,34.980266 C145.131141,35.3637943 144.580852,35.5555556 143.870955,35.5555556 C143.166166,35.5555556 142.61843,35.3637943 142.227732,34.980266 C141.837034,34.5967377 141.641687,34.0574895 141.641687,33.3625054 L141.641687,32.026598 C141.641687,31.3367619 141.837034,30.8000877 142.227732,30.4165594 C142.61843,30.0330311 143.166166,29.8412698 143.870955,29.8412698 C144.580852,29.8412698 145.131141,30.0330311 145.521839,30.4165594 C145.912537,30.8000877 146.107884,31.3367619 146.107884,32.026598 L146.107884,33.3625054 Z M142.898045,33.3393393 C142.898045,34.0343235 143.222345,34.3818104 143.870955,34.3818104 C144.519566,34.3818104 144.843866,34.0343235 144.843866,33.3393393 L144.843866,32.049764 C144.843866,31.3599279 144.519566,31.015015 143.870955,31.015015 C143.222345,31.015015 142.898045,31.3599279 142.898045,32.049764 L142.898045,33.3393393 Z M153.171062,29.9416559 C153.472385,29.9416559 153.744337,29.9867005 153.986928,30.0767911 C154.229518,30.1668816 154.435079,30.2968674 154.603615,30.4667525 C154.772152,30.6366375 154.902382,30.8425556 154.994312,31.0845131 C155.086241,31.3264705 155.132204,31.5967381 155.132204,31.8953239 C155.132204,32.1990577 155.086241,32.4718993 154.994312,32.7138567 C154.902382,32.9558142 154.772152,33.1617323 154.603615,33.3316173 C154.435079,33.5015024 154.229518,33.6314882 153.986928,33.7215787 C153.744337,33.8116693 153.472385,33.8567139 153.171062,33.8567139 L152.236455,33.8567139 L152.236455,35.3238953 C152.236455,35.4165599 152.193044,35.4628915 152.106222,35.4628915 L151.140972,35.4628915 C151.054151,35.4628915 151.01074,35.4165599 151.01074,35.3238953 L151.01074,30.0806521 C151.01074,29.9879875 151.054151,29.9416559 151.140972,29.9416559 L153.171062,29.9416559 Z M153.002526,32.7061347 C153.579636,32.7061347 153.868187,32.4358671 153.868187,31.8953239 C153.868187,31.3547807 153.579636,31.0845131 153.002526,31.0845131 L152.236455,31.0845131 L152.236455,32.7061347 L153.002526,32.7061347 Z M161.069257,34.3432003 L163.344489,34.3432003 C163.436418,34.3432003 163.482382,34.3869579 163.482382,34.4744745 L163.482382,35.3238953 C163.482382,35.4165599 163.436418,35.4628915 163.344489,35.4628915 L159.973775,35.4628915 C159.881846,35.4628915 159.835883,35.4165599 159.835883,35.3238953 L159.835883,30.0806521 C159.835883,29.9879875 159.881846,29.9416559 159.973775,29.9416559 L163.221918,29.9416559 C163.313847,29.9416559 163.359811,29.9879875 163.359811,30.0806521 L163.359811,30.9300729 C163.359811,31.0175895 163.313847,31.0613471 163.221918,31.0613471 L161.069257,31.0613471 L161.069257,32.1192621 L162.969114,32.1192621 C163.061044,32.1192621 163.107007,32.1630197 163.107007,32.2505363 L163.107007,33.0845131 C163.107007,33.1720296 163.061044,33.2157872 162.969114,33.2157872 L161.069257,33.2157872 L161.069257,34.3432003 Z M171.258007,35.4628915 C171.186506,35.4628915 171.135435,35.4320037 171.104792,35.3702274 L170.039953,33.6173316 L169.549668,33.6173316 L169.549668,35.3238953 C169.549668,35.4165599 169.503704,35.4628915 169.411775,35.4628915 L168.454185,35.4628915 C168.362256,35.4628915 168.316293,35.4165599 168.316293,35.3238953 L168.316293,30.0806521 C168.316293,29.9879875 168.362256,29.9416559 168.454185,29.9416559 L170.315739,29.9416559 C170.642598,29.9416559 170.932425,29.9854135 171.18523,30.0729301 C171.438035,30.1604466 171.651256,30.2839975 171.8249,30.4435864 C171.998543,30.6031754 172.130051,30.7987976 172.219426,31.030459 C172.308802,31.2621204 172.353489,31.5195181 172.353489,31.8026598 C172.353489,32.2042062 172.257731,32.5426842 172.066212,32.8181038 C171.874693,33.0935235 171.602741,33.2981546 171.250346,33.4320034 L172.47606,35.3007293 C172.501596,35.3470616 172.506703,35.3856712 172.491382,35.4165594 C172.47606,35.4474476 172.44031,35.4628915 172.384132,35.4628915 L171.258007,35.4628915 Z M169.549668,31.0845131 L169.549668,32.5362505 L170.277435,32.5362505 C170.563437,32.5362505 170.770274,32.4783361 170.897953,32.3625054 C171.025632,32.2466747 171.089471,32.0626353 171.089471,31.8103818 C171.089471,31.5632763 171.025632,31.380524 170.897953,31.2621193 C170.770274,31.1437146 170.563437,31.0845131 170.277435,31.0845131 L169.549668,31.0845131 Z" id="ux/ui-developer" fill="#808080"></path>
            </g>
        </g>
    </g>
</svg>